<?xml version="1.0" encoding="utf-8" ?>
<svg baseProfile="full" height="1000px" version="1.1" width="1500px" xmlns="http://www.w3.org/2000/svg" xmlns:ev="http://www.w3.org/2001/xml-events" xmlns:xlink="http://www.w3.org/1999/xlink"><defs /><polyline fill="white" points="0,0 0,1000 1500,1000 1500,0" stroke="black" /><polyline fill="white" points="60,60 60,940 1231.1999999999998,940 1231.1999999999998,60 60,60" stroke="black" stroke-width="5" /><polyline fill="#89fce0" points="1231.1999999999998,403.504721930745 1182.3999999999999,381.88512249646436 1133.6,352.01514667639947 1084.8,367.5924996578311 1036.0,359.76367535015277 987.1999999999999,206.39901455358367 938.4,167.59614945937307 889.5999999999999,109.56248004014776 840.8,60.0 792.0,243.25471052511517 743.1999999999999,328.3680824855149 694.4,424.08047812400196 645.5999999999999,472.7797800994571 596.8,451.5415849263196 548.0,587.1809845339659 499.2,675.5864774852869 450.4,704.9546055933209 401.59999999999997,760.6998494456864 352.79999999999995,822.5877092933072 304.0,849.6473379260003 255.2,853.9230804325015 206.39999999999998,864.3012911172955 157.6,860.4069528719375 108.8,880.5410830786076 60.0,890.5780373192209 60.0,940.0000000000001 108.8,940.0 157.6,939.9999999999999 206.39999999999998,940.0 255.2,940.0 304.0,940.0 352.79999999999995,940.0 401.59999999999997,940.0 450.4,940.0000000000001 499.2,940.0000000000002 548.0,939.9999999999999 596.8,940.0 645.5999999999999,940.0 694.4,939.9999999999999 743.1999999999999,940.0 792.0,940.0 840.8,940.0000000000001 889.5999999999999,939.9999999999999 938.4,940.0 987.1999999999999,939.9999999999999 1036.0,940.0 1084.8,940.0 1133.6,940.0 1182.3999999999999,940.0000000000002 1231.1999999999998,940.0" stroke="black" stroke-width="0" /><polyline fill="#614411" points="1231.1999999999998,424.48101179561314 1182.3999999999999,390.44793150209034 1133.6,367.10982401804023 1084.8,392.5586162663224 1036.0,383.66152920079963 987.1999999999999,240.26470792821925 938.4,210.84535893846328 889.5999999999999,170.87793850313327 840.8,120.64697609001406 792.0,304.71485480449434 743.1999999999999,385.14404107335736 694.4,468.6255465379239 645.5999999999999,517.9444013565096 596.8,497.04753983489326 548.0,621.4828332598303 499.2,702.3426077397519 450.4,729.1782855321735 401.59999999999997,779.4073177284536 352.79999999999995,835.408591611854 304.0,859.4583593128235 255.2,862.6177187726529 206.39999999999998,871.7777068094144 157.6,868.4466546020449 108.8,887.1476294032068 60.0,896.0693665059741 60.0,896.0693665059741 108.8,887.1476294032068 157.6,868.4466546020449 206.39999999999998,871.7777068094144 255.2,862.6177187726529 304.0,859.4583593128235 352.79999999999995,835.408591611854 401.59999999999997,779.4073177284536 450.4,729.1782855321735 499.2,702.3426077397519 548.0,621.4828332598303 596.8,497.04753983489326 645.5999999999999,517.9444013565096 694.4,475.19776974653536 743.1999999999999,396.7573053299615 792.0,310.0335211363637 840.8,137.35583684950774 889.5999999999999,181.5932613413249 938.4,213.8863189799618 987.1999999999999,246.57073359108242 1036.0,391.686927881987 1084.8,395.69681528135624 1133.6,380.553521025439 1182.3999999999999,396.93763938003843 1231.1999999999998,429.8139668460033" stroke="black" stroke-width="0" /><polyline fill="#dbc6bb" points="1231.1999999999998,450.7902567108715 1182.3999999999999,405.5004483856644 1133.6,395.64819836707983 1084.8,420.6629318898475 1036.0,415.58478173263387 987.1999999999999,280.43642696571806 938.4,257.135528459052 889.5999999999999,242.9087198043104 840.8,198.0028129395218 792.0,371.49366541574284 743.1999999999999,453.533263917804 694.4,519.7428381604574 645.5999999999999,563.109022613562 596.8,542.5534947434669 548.0,655.7846819856946 499.2,729.0987379942169 450.4,753.4019654710261 401.59999999999997,798.1147860112208 352.79999999999995,848.2294739304009 304.0,869.2693806996467 255.2,871.3123571128043 206.39999999999998,879.2541225015334 157.6,876.4863563321522 108.8,893.754175727806 60.0,901.5606956927273 60.0,901.5606956927273 108.8,893.754175727806 157.6,876.4863563321522 206.39999999999998,879.2541225015334 255.2,871.3123571128043 304.0,869.2693806996467 352.79999999999995,848.2294739304009 401.59999999999997,798.1147860112208 450.4,753.4019654710261 499.2,729.0987379942169 548.0,655.7846819856946 596.8,542.5534947434669 645.5999999999999,563.109022613562 694.4,519.7428381604574 743.1999999999999,453.533263917804 792.0,392.76833074322025 840.8,253.69901547116737 889.5999999999999,253.62404264250205 938.4,284.50416883253877 987.1999999999999,343.4966835943498 1036.0,466.94733329223305 1084.8,467.7359171153548 1133.6,473.48012840991504 1182.3999999999999,493.1115047379636 1231.1999999999998,517.4521948407491" stroke="black" stroke-width="0" /><polyline fill="#25a4ac" points="1231.1999999999998,538.4284847056173 1182.3999999999999,501.6743137435896 1133.6,488.5748057515558 1084.8,492.7020337238461 1036.0,490.8451871428799 987.1999999999999,377.36237696898536 938.4,327.753378311629 889.5999999999999,314.9395011054876 840.8,314.34599156118145 792.0,454.22847502259935 743.1999999999999,510.3092225056465 694.4,564.2879065743793 645.5999999999999,608.2736438706145 596.8,588.0594496520406 548.0,690.086530711559 499.2,755.8548682486819 450.4,777.6256454098786 401.59999999999997,816.822254293988 352.79999999999995,861.0503562489478 304.0,879.0804020864699 255.2,880.0069954529557 206.39999999999998,886.7305381936524 157.6,884.5260580622596 108.8,900.3607220524052 60.0,907.0520248794805 60.0,907.0520248794805 108.8,900.3607220524052 157.6,891.7617896193561 206.39999999999998,895.1415058472862 255.2,887.832169959092 304.0,881.1338716790608 352.79999999999995,863.0747060887184 401.59999999999997,827.7551903033973 450.4,794.6579203668844 499.2,760.5765382935875 548.0,703.656492844868 596.8,610.6036841939027 645.5999999999999,622.2902504676308 694.4,587.2906878045194 743.1999999999999,533.5357510188549 792.0,480.8218066819461 840.8,336.6244725738397 889.5999999999999,347.0854696200625 938.4,376.4087389756055 987.1999999999999,400.4844710661503 1036.0,503.68582503277975 1084.8,498.97843175391375 1133.6,492.82018375389225 1182.3999999999999,505.73038116730714 1231.1999999999998,539.4950757156953" stroke="black" stroke-width="0" /><polyline fill="#7650dc" points="1231.1999999999998,560.4713655805634 1182.3999999999999,514.2931901729331 1133.6,507.914861095533 1084.8,523.944548362405 1036.0,527.5836788834265 987.1999999999999,434.350164440786 938.4,419.6579484546957 889.5999999999999,408.4009280830479 840.8,397.27144866385373 792.0,542.2819509613253 743.1999999999999,590.3117096066973 694.4,631.8357562184414 645.5999999999999,667.4548717246832 596.8,656.1096391024764 548.0,737.9583415707324 499.2,787.3326685480525 450.4,818.8816003057369 401.59999999999997,846.4626585861645 352.79999999999995,875.8955884072652 304.0,890.944893065884 255.2,896.5268082992433 206.39999999999998,902.6179215394052 157.6,899.8014913494635 108.8,906.9672683770044 60.0,912.5433540662337 60.0,912.5433540662337 108.8,906.9672683770044 157.6,899.8014913494635 206.39999999999998,902.6179215394052 255.2,896.5268082992433 304.0,890.944893065884 352.79999999999995,875.8955884072652 401.59999999999997,846.4626585861645 450.4,818.8816003057369 499.2,796.7760086378637 548.0,748.1358131707142 596.8,678.6538736443385 645.5999999999999,681.4714783216996 694.4,667.9829838658043 743.1999999999999,594.1827976922319 792.0,558.2379499569333 840.8,452.9676511954993 889.5999999999999,435.18923517852704 938.4,437.9037087036869 987.1999999999999,459.5742670922387 1036.0,542.8319363776825 1084.8,542.773742452608 1133.6,522.7736841037106 1182.3999999999999,529.7062463830598 1231.1999999999998,569.0040936611878" stroke="black" stroke-width="0" /><polyline fill="#e4918d" points="1231.1999999999998,589.9803835260559 1182.3999999999999,538.2690553886857 1133.6,537.8683614453514 1084.8,567.7398590610992 1036.0,566.7297902283294 987.1999999999999,493.43996046687425 938.4,481.1529181827771 889.5999999999999,496.5046936415125 840.8,513.6146272855134 792.0,619.6980942363125 743.1999999999999,650.9587562800745 694.4,712.5280522797262 645.5999999999999,726.636099578752 596.8,724.1598285529122 548.0,782.4376618965786 499.2,823.5321388923287 450.4,843.1052802445895 401.59999999999997,865.1701268689317 352.79999999999995,888.7164707258121 304.0,900.7559144527072 255.2,905.2214466393947 206.39999999999998,910.0943372315242 157.6,907.8411930795709 108.8,913.5738147016036 60.0,918.034683252987 60.0,918.034683252987 108.8,913.5738147016036 157.6,907.8411930795709 206.39999999999998,910.0943372315242 255.2,905.2214466393947 304.0,900.7559144527072 352.79999999999995,888.7164707258121 401.59999999999997,865.1701268689317 450.4,843.1052802445895 499.2,823.5321388923287 548.0,782.4376618965786 596.8,724.1598285529122 645.5999999999999,726.636099578752 694.4,719.1002754883377 743.1999999999999,654.8298443656091 792.0,635.6540932319206 840.8,541.4627285513362 889.5999999999999,512.5776778988 938.4,487.23483826577416 987.1999999999999,512.3580374554638 1036.0,573.9526490413981 1084.8,574.6438968941736 1133.6,547.0666804504137 1182.3999999999999,543.9475497818903 1231.1999999999998,595.8466340814851" stroke="black" stroke-width="0" /><polyline fill="#e8a109" points="1231.1999999999998,616.8229239463533 1182.3999999999999,552.5103587875162 1133.6,562.1613577920546 1084.8,599.6100135026649 1036.0,597.8505028920449 987.1999999999999,546.2237308300994 938.4,530.4840477448645 889.5999999999999,573.8931363617854 840.8,602.1097046413503 792.0,697.1142375112997 743.1999999999999,711.6058029534516 694.4,763.6453439022597 645.5999999999999,771.8007208358044 596.8,769.665783461486 548.0,816.7395106224429 499.2,850.2882691467937 450.4,867.3289601834421 401.59999999999997,883.8775951516989 352.79999999999995,901.537353044359 304.0,910.5669358395304 255.2,913.9160849795461 206.39999999999998,917.5707529236431 157.6,915.8808948096782 108.8,920.1803610262028 60.0,923.5260124397402 60.0,923.5260124397402 108.8,920.1803610262028 157.6,915.8808948096782 206.39999999999998,917.5707529236431 255.2,913.9160849795461 304.0,910.5669358395304 352.79999999999995,901.537353044359 401.59999999999997,883.8775951516989 450.4,867.3289601834421 499.2,850.2882691467937 548.0,833.7019632890792 596.8,788.4526455797044 645.5999999999999,781.1451252338153 694.4,773.5036787151769 743.1999999999999,727.0901552955905 792.0,718.3889028387771 840.8,613.2489451476794 889.5999999999999,606.0391048763604 938.4,591.3032485748352 987.1999999999999,584.0598848072784 1036.0,629.1495577486756 1084.8,634.7578424710437 1133.6,600.3697598130827 1182.3999999999999,581.7140442382827 1231.1999999999998,636.554857632797" stroke="black" stroke-width="0" /><polyline fill="#d23c82" points="1231.1999999999998,657.5311474976652 1182.3999999999999,590.2768532439086 1133.6,615.4644371547236 1084.8,659.7239590795349 1036.0,653.0474115993226 987.1999999999999,617.925578181914 938.4,634.5524580539253 889.5999999999999,667.3545633393459 840.8,673.8959212376934 792.0,779.8490471181562 743.1999999999999,783.866113883433 694.4,818.0487471290988 645.5999999999999,826.3097464908678 596.8,833.9586004882781 548.0,868.0038120149436 499.2,877.0443994012587 450.4,891.5526401222946 401.59999999999997,902.5850634344661 352.79999999999995,914.3582353629058 304.0,920.3779572263536 255.2,922.6107233196975 206.39999999999998,925.0471686157621 157.6,923.9205965397856 108.8,926.786907350802 60.0,929.0173416264934 60.0,929.0173416264934 108.8,926.786907350802 157.6,923.9205965397856 206.39999999999998,925.0471686157621 255.2,922.6107233196975 304.0,920.3779572263536 352.79999999999995,914.3582353629058 401.59999999999997,902.5850634344661 450.4,891.5526401222946 499.2,877.0443994012587 548.0,868.0038120149436 596.8,833.9586004882781 645.5999999999999,835.6541508888787 694.4,821.3348587334045 743.1999999999999,795.479378140037 792.0,785.1677134500256 840.8,707.3136427566808 889.5999999999999,710.2158546921124 938.4,695.371658883896 987.1999999999999,676.7818177019703 1036.0,696.3845644777344 1084.8,688.5953900178461 1133.6,661.4560321800353 1182.3999999999999,647.8730106606979 1231.1999999999998,687.9289912848894" stroke="black" stroke-width="0" /><polyline fill="#ea0676" points="1231.1999999999998,708.9052811497576 1182.3999999999999,656.4358196663238 1133.6,676.550709521676 1084.8,713.5615066263373 1036.0,720.2824183283813 987.1999999999999,710.647511076606 938.4,738.6208683629861 889.5999999999999,771.5313131550979 840.8,767.9606188466948 792.0,846.6278577294047 743.1999999999999,852.2553367278796 694.4,865.8799271473265 645.5999999999999,880.8187721459312 596.8,879.4645553968518 548.0,902.305660740808 499.2,903.8005296557237 450.4,915.7763200611472 401.59999999999997,921.2925317172333 352.79999999999995,927.1791176814527 304.0,930.1889786131768 255.2,931.3053616598489 206.39999999999998,932.523584307881 157.6,931.960298269893 108.8,933.3934536754012 60.0,934.5086708132466 60.0,934.5086708132466 108.8,933.3934536754012 157.6,931.960298269893 206.39999999999998,932.523584307881 255.2,931.3053616598489 304.0,930.1889786131768 352.79999999999995,927.1791176814527 401.59999999999997,921.2925317172333 450.4,915.7763200611472 499.2,913.2438697455349 548.0,905.6981512741353 596.8,894.4940450914265 645.5999999999999,894.8353787429476 694.4,895.4549315860779 743.1999999999999,883.2240414121572 792.0,878.5398557206208 840.8,879.353023909986 889.5999999999999,878.6845415370143 938.4,896.7507905209097 987.1999999999999,906.1343066253644 1036.0,916.1021461493532 1084.8,915.0338833915085 1133.6,924.9053226583593 1182.3999999999999,931.4371909943742 1231.1999999999998,919.0237101351318" stroke="black" stroke-width="0" /><polyline fill="#490ce4" points="1231.1999999999998,718.9045718692392 1182.3999999999999,662.1143140595284 1133.6,684.5107932760569 1084.8,721.0931842624185 1036.0,727.7059121084795 987.1999999999999,721.6830559866165 938.4,743.9425484356086 889.5999999999999,775.5495592194197 840.8,769.353023909986 792.0,849.2871908953393 743.1999999999999,854.1908807706469 694.4,867.5229829494793 645.5999999999999,883.1548732454339 596.8,881.3432416086737 548.0,903.1537833741398 499.2,906.1613646781765 450.4,915.7763200611472 401.59999999999997,921.2925317172333 352.79999999999995,927.1791176814527 304.0,930.1889786131768 255.2,931.3053616598489 206.39999999999998,932.523584307881 157.6,931.960298269893 108.8,933.3934536754012 60.0,934.5086708132466 60.0,934.5086708132466 108.8,933.3934536754012 157.6,931.960298269893 206.39999999999998,932.523584307881 255.2,931.3053616598489 304.0,930.1889786131768 352.79999999999995,927.1791176814527 401.59999999999997,921.2925317172333 450.4,915.7763200611472 499.2,906.1613646781765 548.0,903.1537833741398 596.8,888.857986455961 645.5999999999999,887.8270754444394 694.4,870.809094553785 743.1999999999999,858.0619688561816 792.0,859.924523559078 840.8,780.492264416315 889.5999999999999,791.6225434767072 938.4,768.2702287675969 987.1999999999999,767.9272441809464 1036.0,779.0684636680787 1084.8,770.0490888969462 1133.6,754.5595303146087 1182.3999999999999,757.0262917745192 1231.1999999999998,766.9011673227511" stroke="black" stroke-width="0" /><polyline fill="#cb87dc" points="1231.1999999999998,776.9004580422328 1182.3999999999999,762.7047861677238 1133.6,762.5196140689894 1084.8,777.5807665330273 1036.0,786.491957448177 987.1999999999999,778.962789090957 938.4,773.5919088402193 889.5999999999999,795.6407895410291 840.8,781.8846694796063 792.0,862.5838567250128 743.1999999999999,859.997512898949 694.4,872.4521503559379 645.5999999999999,890.1631765439421 596.8,890.736672667783 548.0,904.0019060074717 499.2,908.5221997006292 450.4,915.7763200611472 401.59999999999997,921.2925317172333 352.79999999999995,927.1791176814527 304.0,930.1889786131768 255.2,931.3053616598489 206.39999999999998,932.523584307881 157.6,931.960298269893 108.8,933.3934536754012 60.0,934.5086708132466 60.0,934.5086708132466 108.8,933.3934536754012 157.6,931.960298269893 206.39999999999998,932.523584307881 255.2,931.3053616598489 304.0,930.1889786131768 352.79999999999995,927.1791176814527 401.59999999999997,921.2925317172333 450.4,915.7763200611472 499.2,908.5221997006292 548.0,904.0019060074717 596.8,890.736672667783 645.5999999999999,890.1631765439421 694.4,879.0243735645494 743.1999999999999,867.7396890700185 792.0,867.9025230568822 840.8,815.3023909985936 889.5999999999999,806.3561123792208 938.4,788.7967090477119 987.1999999999999,783.1668061995325 1036.0,792.912276393127 1084.8,788.878282987149 1133.6,773.84062207522 1182.3999999999999,778.929055862594 1231.1999999999998,783.300004102701" stroke="black" stroke-width="0" /><polyline fill="#81d90f" points="1231.1999999999998,793.2992948221827 1182.3999999999999,784.6075502557986 1133.6,781.8007058296009 1084.8,796.4099606232302 1036.0,800.3357701732252 987.1999999999999,794.202351109543 938.4,794.1183891203343 889.5999999999999,810.3743584435426 840.8,816.6947960618847 792.0,870.5618562228168 743.1999999999999,869.6752331127858 694.4,880.6674293667022 645.5999999999999,892.4992776434448 596.8,892.6153588796049 548.0,904.8500286408035 499.2,910.883034723082 450.4,915.7763200611472 401.59999999999997,921.2925317172333 352.79999999999995,927.1791176814527 304.0,930.1889786131768 255.2,931.3053616598489 206.39999999999998,932.523584307881 157.6,931.960298269893 108.8,933.3934536754012 60.0,934.5086708132466 60.0,934.5086708132466 108.8,933.3934536754012 157.6,931.960298269893 206.39999999999998,932.523584307881 255.2,931.3053616598489 304.0,930.1889786131768 352.79999999999995,927.1791176814527 401.59999999999997,921.2925317172333 450.4,915.7763200611472 499.2,910.883034723082 548.0,904.8500286408035 596.8,892.6153588796049 645.5999999999999,892.4992776434448 694.4,893.8118757839251 743.1999999999999,881.2884973693899 792.0,875.8805225546862 840.8,877.9606188466948 889.5999999999999,874.6662954726925 938.4,891.4291104482872 987.1999999999999,895.0987617153538 1036.0,908.6786523692548 1084.8,907.5022057554274 1133.6,916.9452389039784 1182.3999999999999,925.7586966011696 1231.1999999999998,909.0244194156502" stroke="black" stroke-width="0" /><text font-size="26" x="1246.1999999999998" y="418.504721930745">anc</text><text font-size="26" x="1246.1999999999998" y="453.169760993245">R.1_E484K_9</text><text font-size="26" x="1246.1999999999998" y="487.834800055745">B.1.1.7_N501Y_5</text><text font-size="26" x="1246.1999999999998" y="553.4284847056173">B.1.517_N501T_3</text><text font-size="26" x="1246.1999999999998" y="588.0935237681173">B.1.429_S13I_3</text><text font-size="26" x="1246.1999999999998" y="622.7585628306173">B.1.165_N501Y_14</text><text font-size="26" x="1246.1999999999998" y="657.4236018931173">B.1_T205I_23</text><text font-size="26" x="1246.1999999999998" y="692.0886409556173">B.1_L452R_15</text><text font-size="26" x="1246.1999999999998" y="726.7536800181173">B.1.526_D253G_37</text><text font-size="26" x="1246.1999999999998" y="761.4187190806173">B.1.526_S477N_11</text><text font-size="26" x="1246.1999999999998" y="796.0837581431173">B.1.526_S477N_12</text><text font-size="26" x="1246.1999999999998" y="830.7487972056173">B.1.526_E484K_45</text><text font-size="22" x="0" y="940.0">0</text><text font-size="22" x="0" y="852.0361330352663">626</text><text font-size="22" x="0" y="764.0722660705325">1252</text><text font-size="22" x="0" y="676.1083991057985">1878</text><text font-size="22" x="0" y="588.1445321410648">2504</text><text font-size="22" x="0" y="500.180665176331">3130</text><text font-size="22" x="0" y="412.2167982115972">3756</text><text font-size="22" x="0" y="324.25293124686345">4382</text><text font-size="22" x="0" y="236.28906428212966">5008</text><text font-size="22" x="0" y="148.32519731739586">5634</text><text font-size="22" x="0" y="60.36133035266206">6260</text><text font-size="26" x="157.6" y="970">2020-10-04</text><line stroke="black" stroke-width="5" x1="157.6" x2="157.6" y1="955" y2="925" /><text font-size="26" x="352.79999999999995" y="970">2020-11-01</text><line stroke="black" stroke-width="5" x1="352.79999999999995" x2="352.79999999999995" y1="955" y2="925" /><text font-size="26" x="548.0" y="970">2020-11-29</text><line stroke="black" stroke-width="5" x1="548.0" x2="548.0" y1="955" y2="925" /><text font-size="26" x="743.1999999999999" y="970">2020-12-27</text><line stroke="black" stroke-width="5" x1="743.1999999999999" x2="743.1999999999999" y1="955" y2="925" /><text font-size="26" x="938.4" y="970">2021-01-24</text><line stroke="black" stroke-width="5" x1="938.4" x2="938.4" y1="955" y2="925" /><text font-size="26" x="1133.6" y="970">2021-02-21</text><line stroke="black" stroke-width="5" x1="1133.6" x2="1133.6" y1="955" y2="925" /><text font-size="32" x="75" y="30.0">case_scaled_lineages</text></svg>