<?xml version="1.0" encoding="utf-8" ?>
<svg baseProfile="full" height="1000px" version="1.1" width="1500px" xmlns="http://www.w3.org/2000/svg" xmlns:ev="http://www.w3.org/2001/xml-events" xmlns:xlink="http://www.w3.org/1999/xlink"><defs /><polyline fill="white" points="0,0 0,1000 1500,1000 1500,0" stroke="black" /><polyline fill="white" points="60,60 60,940 1231.1999999999998,940 1231.1999999999998,60 60,60" stroke="black" stroke-width="5" /><polyline fill="#89fce0" points="1231.1999999999998,60.0 1182.3999999999999,60.0 1133.6,60.0 1084.8,60.0 1036.0,60.0 987.1999999999999,60.0 938.4,60.0 889.5999999999999,60.0 840.8,60.0 792.0,60.0 743.1999999999999,60.0 694.4,60.0 645.5999999999999,60.0 596.8,60.0 548.0,60.0 499.2,60.0 450.4,60.0 401.59999999999997,60.0 352.79999999999995,60.0 304.0,60.0 255.2,60.0 206.39999999999998,60.0 157.6,60.0 108.8,60.0 60.0,60.0 60.0,940.0 108.8,940.0 157.6,940.0 206.39999999999998,940.0 255.2,940.0 304.0,940.0 352.79999999999995,940.0 401.59999999999997,940.0 450.4,940.0 499.2,940.0 548.0,940.0 596.8,940.0 645.5999999999999,940.0000000000001 694.4,940.0 743.1999999999999,940.0000000000001 792.0,940.0 840.8,940.0000000000001 889.5999999999999,940.0 938.4,940.0 987.1999999999999,940.0 1036.0,939.9999999999999 1084.8,940.0 1133.6,940.0 1182.3999999999999,940.0 1231.1999999999998,940.0" stroke="black" stroke-width="0" /><polyline fill="#614411" points="1231.1999999999998,94.40689198144466 1182.3999999999999,73.50129198966408 1133.6,82.59125551544324 1084.8,98.38206627680312 1036.0,96.24404487475027 987.1999999999999,100.62400509391912 938.4,109.27384076990376 889.5999999999999,124.97491039426524 840.8,120.64697609001406 792.0,137.6251060220526 743.1999999999999,141.6877637130802 694.4,135.98018400566173 645.5999999999999,145.06666666666666 596.8,141.98290598290598 548.0,145.55555555555554 499.2,149.04761904761904 450.4,150.69243156199678 401.59999999999997,151.81571815718158 352.79999999999995,156.0919540229885 304.0,155.55555555555554 255.2,148.88888888888889 206.39999999999998,146.91358024691357 157.6,148.88888888888889 108.8,157.77777777777777 60.0,157.77777777777777 60.0,157.77777777777777 108.8,157.77777777777777 157.6,148.88888888888889 206.39999999999998,146.91358024691357 255.2,148.88888888888889 304.0,155.55555555555554 352.79999999999995,156.0919540229885 401.59999999999997,151.81571815718158 450.4,150.69243156199678 499.2,149.04761904761904 548.0,145.55555555555554 596.8,141.98290598290598 645.5999999999999,145.06666666666666 694.4,147.19037508846426 743.1999999999999,158.39662447257385 792.0,144.342663273961 840.8,137.35583684950774 889.5999999999999,136.32974910394265 938.4,112.73840769903761 987.1999999999999,108.18847500795924 1036.0,108.41555248194253 1084.8,103.20662768031188 1133.6,102.71159245888487 1182.3999999999999,83.73385012919897 1231.1999999999998,103.15440689198144" stroke="black" stroke-width="0" /><polyline fill="#dbc6bb" points="1231.1999999999998,137.5612988734261 1182.3999999999999,97.23514211886305 1133.6,125.30284797432812 1084.8,141.58869395711503 1036.0,144.65959735669279 987.1999999999999,148.81248010187838 938.4,162.01224846894138 889.5999999999999,201.3046594982079 840.8,198.0028129395218 792.0,221.96776929601356 743.1999999999999,240.084388185654 694.4,223.17055909412596 645.5999999999999,230.13333333333333 596.8,223.96581196581195 548.0,231.1111111111111 499.2,238.09523809523807 450.4,241.38486312399357 401.59999999999997,243.63143631436316 352.79999999999995,252.18390804597698 304.0,251.1111111111111 255.2,237.77777777777777 206.39999999999998,233.82716049382714 157.6,237.77777777777777 108.8,255.55555555555554 60.0,255.55555555555554 60.0,255.55555555555554 108.8,255.55555555555554 157.6,237.77777777777777 206.39999999999998,233.82716049382714 255.2,237.77777777777777 304.0,251.1111111111111 352.79999999999995,252.18390804597698 401.59999999999997,243.63143631436316 450.4,241.38486312399357 499.2,238.09523809523807 548.0,231.1111111111111 596.8,223.96581196581195 645.5999999999999,230.13333333333333 694.4,223.17055909412596 743.1999999999999,240.084388185654 792.0,248.83799830364714 840.8,253.69901547116737 889.5999999999999,212.65949820788532 938.4,193.19335083114612 987.1999999999999,224.45717924227952 1036.0,222.5572460427232 1084.8,213.9571150097466 1133.6,241.78900922583233 1182.3999999999999,235.37467700258398 1231.1999999999998,246.90523525513584" stroke="black" stroke-width="0" /><polyline fill="#25a4ac" points="1231.1999999999998,281.3121272365805 1182.3999999999999,248.87596899224806 1133.6,264.3802647412756 1084.8,252.33918128654972 1036.0,258.80129091747347 987.1999999999999,265.08118433619865 938.4,242.46719160104988 889.5999999999999,277.6344086021506 840.8,314.34599156118145 792.0,326.4631043256997 743.1999999999999,321.7721518987342 694.4,299.1507430997877 645.5999999999999,315.2 596.8,305.9487179487179 548.0,316.66666666666663 499.2,327.1428571428571 450.4,332.07729468599035 401.59999999999997,335.44715447154476 352.79999999999995,348.27586206896547 304.0,346.66666666666663 255.2,326.66666666666663 206.39999999999998,320.7407407407407 157.6,326.66666666666663 108.8,353.3333333333333 60.0,353.3333333333333 60.0,353.3333333333333 108.8,353.3333333333333 157.6,406.66666666666663 206.39999999999998,418.5185185185185 255.2,406.66666666666663 304.0,366.66666666666663 352.79999999999995,363.4482758620689 401.59999999999997,389.10569105691064 450.4,395.84541062801935 499.2,342.85714285714283 548.0,350.5128205128205 596.8,346.56410256410254 645.5999999999999,341.59999999999997 694.4,338.3864118895966 743.1999999999999,355.1898734177215 792.0,360.0508905852417 840.8,336.6244725738397 889.5999999999999,311.69892473118284 938.4,297.9002624671916 987.1999999999999,292.8175740210124 1036.0,278.27570308898106 1084.8,261.98830409356725 1133.6,270.734055354994 1182.3999999999999,255.27131782945736 1231.1999999999998,283.06163021868787" stroke="black" stroke-width="0" /><polyline fill="#7650dc" points="1231.1999999999998,317.4685222001325 1182.3999999999999,268.77260981912144 1133.6,293.32531087043725 1084.8,300.3703703703704 1036.0,314.51974796373133 987.1999999999999,333.4415791149315 938.4,347.1741032370954 889.5999999999999,376.6738351254481 840.8,397.27144866385373 792.0,437.6759966072943 743.1999999999999,436.8776371308017 694.4,414.36659589525834 645.5999999999999,426.6666666666667 596.8,428.54700854700855 548.0,436.06837606837604 499.2,431.90476190476187 450.4,486.53784219001614 401.59999999999997,480.92140921409214 352.79999999999995,459.54022988505744 304.0,462.2222222222222 255.2,495.55555555555554 206.39999999999998,505.43209876543204 157.6,495.55555555555554 108.8,451.1111111111111 60.0,451.1111111111111 60.0,451.1111111111111 108.8,451.1111111111111 157.6,495.55555555555554 206.39999999999998,505.43209876543204 255.2,495.55555555555554 304.0,462.2222222222222 352.79999999999995,459.54022988505744 401.59999999999997,480.92140921409214 450.4,486.53784219001614 499.2,463.3333333333333 548.0,461.45299145299145 596.8,469.1623931623932 645.5999999999999,453.06666666666666 694.4,476.02264685067234 743.1999999999999,442.44725738396625 792.0,457.82866836301946 840.8,452.9676511954993 889.5999999999999,405.0609318996416 938.4,367.9615048118985 987.1999999999999,363.699458771092 1036.0,337.6456124173966 1084.8,329.31773879142304 1133.6,315.56357801845166 1182.3999999999999,293.0749354005168 1231.1999999999998,331.46454605699137" stroke="black" stroke-width="0" /><polyline fill="#e4918d" points="1231.1999999999998,365.87143803843605 1182.3999999999999,306.57622739018086 1133.6,338.15483353389493 1084.8,367.6998050682261 1036.0,373.88965729214686 987.1999999999999,404.3234638650111 938.4,417.2353455818023 889.5999999999999,470.03584229390685 840.8,513.6146272855134 792.0,535.453774385072 743.1999999999999,524.1350210970464 694.4,552.0028308563341 645.5999999999999,538.1333333333334 596.8,551.1452991452991 548.0,547.008547008547 499.2,552.3809523809524 450.4,577.2302737520129 401.59999999999997,572.7371273712737 352.79999999999995,555.6321839080459 304.0,557.7777777777777 255.2,584.4444444444445 206.39999999999998,592.3456790123456 157.6,584.4444444444445 108.8,548.8888888888889 60.0,548.8888888888889 60.0,548.8888888888889 108.8,548.8888888888889 157.6,584.4444444444445 206.39999999999998,592.3456790123456 255.2,584.4444444444445 304.0,557.7777777777777 352.79999999999995,555.6321839080459 401.59999999999997,572.7371273712737 450.4,577.2302737520129 499.2,552.3809523809524 548.0,547.008547008547 596.8,551.1452991452991 645.5999999999999,538.1333333333334 694.4,563.2130219391366 743.1999999999999,529.704641350211 792.0,555.6064461407973 840.8,541.4627285513362 889.5999999999999,487.06810035842295 938.4,424.16447944007 987.1999999999999,427.01687360713146 1036.0,384.8440141386199 1084.8,378.3138401559454 1133.6,351.92137986361814 1182.3999999999999,315.5297157622739 1231.1999999999998,375.49370444002653" stroke="black" stroke-width="0" /><polyline fill="#e8a109" points="1231.1999999999998,409.90059642147116 1182.3999999999999,329.031007751938 1133.6,374.5126353790614 1084.8,416.69590643274853 1036.0,421.0880590133701 987.1999999999999,467.64087870105055 938.4,473.43832020997377 889.5999999999999,552.0430107526881 840.8,602.1097046413503 792.0,633.2315521628499 743.1999999999999,611.3924050632911 694.4,639.1932059447984 645.5999999999999,623.2 596.8,633.1282051282051 548.0,632.5641025641025 499.2,641.4285714285714 450.4,667.9227053140096 401.59999999999997,664.5528455284552 352.79999999999995,651.7241379310344 304.0,653.3333333333333 255.2,673.3333333333334 206.39999999999998,679.2592592592591 157.6,673.3333333333334 108.8,646.6666666666667 60.0,646.6666666666667 60.0,646.6666666666667 108.8,646.6666666666667 157.6,673.3333333333334 206.39999999999998,679.2592592592591 255.2,673.3333333333334 304.0,653.3333333333333 352.79999999999995,651.7241379310344 401.59999999999997,664.5528455284552 450.4,667.9227053140096 499.2,641.4285714285714 548.0,674.8717948717948 596.8,666.9743589743589 645.5999999999999,640.8000000000001 694.4,656.0084925690022 743.1999999999999,633.6708860759493 792.0,660.1017811704835 840.8,613.2489451476794 889.5999999999999,586.1075268817203 938.4,542.729658792651 987.1999999999999,513.0276981852912 1036.0,468.5569386814199 1084.8,470.7309941520468 1133.6,431.6967509025271 1182.3999999999999,375.07751937984494 1231.1999999999998,442.26640159045724" stroke="black" stroke-width="0" /><polyline fill="#d23c82" points="1231.1999999999998,476.6732935719019 1182.3999999999999,388.578811369509 1133.6,454.28800641797034 1084.8,509.1130604288499 1036.0,504.8009835561702 987.1999999999999,553.6517032792103 938.4,592.0034995625548 889.5999999999999,651.0824372759857 840.8,673.8959212376934 792.0,737.7268871925361 743.1999999999999,715.3586497890295 694.4,731.9886765746639 645.5999999999999,725.8666666666668 596.8,748.9572649572649 548.0,760.4273504273505 499.2,730.4761904761905 450.4,758.6151368760063 401.59999999999997,756.3685636856368 352.79999999999995,747.8160919540229 304.0,748.8888888888888 255.2,762.2222222222223 206.39999999999998,766.1728395061727 157.6,762.2222222222223 108.8,744.4444444444446 60.0,744.4444444444446 60.0,744.4444444444446 108.8,744.4444444444446 157.6,762.2222222222223 206.39999999999998,766.1728395061727 255.2,762.2222222222223 304.0,748.8888888888888 352.79999999999995,747.8160919540229 401.59999999999997,756.3685636856368 450.4,758.6151368760063 499.2,730.4761904761905 548.0,760.4273504273505 596.8,748.9572649572649 645.5999999999999,743.4666666666668 694.4,737.5937721160652 743.1999999999999,732.0675105485232 792.0,744.4444444444445 840.8,707.3136427566808 889.5999999999999,696.5017921146954 938.4,661.294838145232 987.1999999999999,624.2534224769181 1036.0,570.5271246350084 1084.8,553.4990253411306 1133.6,523.1207380665865 1182.3999999999999,479.3927648578811 1231.1999999999998,526.5341285619616" stroke="black" stroke-width="0" /><polyline fill="#ea0676" points="1231.1999999999998,560.9410205434062 1182.3999999999999,492.8940568475452 1133.6,545.7119935820297 1084.8,591.8810916179337 1036.0,606.7711695097586 987.1999999999999,664.8774275708372 938.4,710.5686789151357 889.5999999999999,761.4767025089607 840.8,767.9606188466948 792.0,822.069550466497 743.1999999999999,813.7552742616034 694.4,813.573956121727 645.5999999999999,828.5333333333333 596.8,830.9401709401709 548.0,845.982905982906 499.2,819.5238095238095 450.4,849.307568438003 401.59999999999997,848.1842818428183 352.79999999999995,843.9080459770114 304.0,844.4444444444443 255.2,851.1111111111112 206.39999999999998,853.0864197530864 157.6,851.1111111111112 108.8,842.2222222222224 60.0,842.2222222222224 60.0,842.2222222222224 108.8,842.2222222222224 157.6,851.1111111111112 206.39999999999998,853.0864197530864 255.2,851.1111111111112 304.0,844.4444444444443 352.79999999999995,843.9080459770114 401.59999999999997,848.1842818428183 450.4,849.307568438003 499.2,850.952380952381 548.0,854.4444444444445 596.8,858.017094017094 645.5999999999999,854.9333333333333 694.4,864.0198159943384 743.1999999999999,858.3122362869199 792.0,862.3748939779474 840.8,879.353023909986 889.5999999999999,875.0250896057348 938.4,890.7261592300963 987.1999999999999,899.3759949060807 1036.0,903.7559551252496 1084.8,901.617933723197 1133.6,917.4087444845568 1182.3999999999999,926.4987080103359 1231.1999999999998,905.5931080185553" stroke="black" stroke-width="0" /><polyline fill="#490ce4" points="1231.1999999999998,577.3426110006627 1182.3999999999999,501.8475452196382 1133.6,557.6253509827517 1084.8,603.4600389863548 1036.0,618.0298140464114 987.1999999999999,678.1152499204075 938.4,716.63167104112 889.5999999999999,765.7347670250897 840.8,769.353023909986 792.0,825.4283290924512 743.1999999999999,816.5400843881857 694.4,816.3765038924275 645.5999999999999,832.9333333333333 596.8,834.3247863247863 548.0,848.0982905982906 499.2,827.3809523809524 450.4,849.307568438003 401.59999999999997,848.1842818428183 352.79999999999995,843.9080459770114 304.0,844.4444444444443 255.2,851.1111111111112 206.39999999999998,853.0864197530864 157.6,851.1111111111112 108.8,842.2222222222224 60.0,842.2222222222224 60.0,842.2222222222224 108.8,842.2222222222224 157.6,851.1111111111112 206.39999999999998,853.0864197530864 255.2,851.1111111111112 304.0,844.4444444444443 352.79999999999995,843.9080459770114 401.59999999999997,848.1842818428183 450.4,849.307568438003 499.2,827.3809523809524 548.0,848.0982905982906 596.8,847.8632478632478 645.5999999999999,841.7333333333332 694.4,821.9815994338288 743.1999999999999,822.1097046413503 792.0,838.863443596268 840.8,780.492264416315 889.5999999999999,782.7670250896058 938.4,744.3482064741908 987.1999999999999,733.5880292900349 1036.0,695.9274627324418 1084.8,678.7231968810917 1133.6,662.4628961091055 1182.3999999999999,651.4987080103359 1231.1999999999998,656.0702451954937" stroke="black" stroke-width="0" /><polyline fill="#cb87dc" points="1231.1999999999998,672.4718356527502 1182.3999999999999,660.452196382429 1133.6,674.3762535098275 1084.8,690.3021442495127 1036.0,707.1861072690947 987.1999999999999,746.8258516396052 938.4,750.4111986001751 889.5999999999999,787.0250896057348 840.8,781.8846694796063 792.0,842.2222222222223 743.1999999999999,824.8945147679326 694.4,824.7841472045294 645.5999999999999,846.1333333333333 596.8,851.2478632478632 548.0,850.2136752136753 499.2,835.2380952380953 450.4,849.307568438003 401.59999999999997,848.1842818428183 352.79999999999995,843.9080459770114 304.0,844.4444444444443 255.2,851.1111111111112 206.39999999999998,853.0864197530864 157.6,851.1111111111112 108.8,842.2222222222224 60.0,842.2222222222224 60.0,842.2222222222224 108.8,842.2222222222224 157.6,851.1111111111112 206.39999999999998,853.0864197530864 255.2,851.1111111111112 304.0,844.4444444444443 352.79999999999995,843.9080459770114 401.59999999999997,848.1842818428183 450.4,849.307568438003 499.2,835.2380952380953 548.0,850.2136752136753 596.8,851.2478632478632 645.5999999999999,846.1333333333333 694.4,835.994338287332 743.1999999999999,836.0337552742617 792.0,848.9397794741307 840.8,815.3023909985936 889.5999999999999,798.3799283154123 938.4,767.7340332458444 987.1999999999999,751.8688315822985 1036.0,716.9233133548485 1084.8,707.6705653021443 1133.6,691.3196951464099 1182.3999999999999,686.0335917312661 1231.1999999999998,682.9688535453944" stroke="black" stroke-width="0" /><polyline fill="#81d90f" points="1231.1999999999998,699.3704440026507 1182.3999999999999,694.9870801033592 1133.6,703.2330525471319 1084.8,719.2495126705653 1036.0,728.1819578915013 987.1999999999999,765.1066539318688 938.4,773.7970253718287 889.5999999999999,802.6379928315413 840.8,816.6947960618847 792.0,852.2985581000848 743.1999999999999,838.818565400844 694.4,838.7968860580326 645.5999999999999,850.5333333333333 596.8,854.6324786324785 548.0,852.3290598290599 499.2,843.0952380952382 450.4,849.307568438003 401.59999999999997,848.1842818428183 352.79999999999995,843.9080459770114 304.0,844.4444444444443 255.2,851.1111111111112 206.39999999999998,853.0864197530864 157.6,851.1111111111112 108.8,842.2222222222224 60.0,842.2222222222224 60.0,842.2222222222224 108.8,842.2222222222224 157.6,851.1111111111112 206.39999999999998,853.0864197530864 255.2,851.1111111111112 304.0,844.4444444444443 352.79999999999995,843.9080459770114 401.59999999999997,848.1842818428183 450.4,849.307568438003 499.2,843.0952380952382 548.0,852.3290598290599 596.8,854.6324786324785 645.5999999999999,850.5333333333333 694.4,861.2172682236377 743.1999999999999,855.5274261603377 792.0,859.0161153519932 840.8,877.9606188466948 889.5999999999999,870.7670250896058 938.4,884.6631671041122 987.1999999999999,886.1381725565107 1036.0,892.4973105885967 1084.8,890.0389863547758 1133.6,905.4953870838347 1182.3999999999999,917.5452196382429 1231.1999999999998,889.1915175612988" stroke="black" stroke-width="0" /><text font-size="26" x="1246.1999999999998" y="75.0">anc</text><text font-size="26" x="1246.1999999999998" y="109.6650390625">R.1_E484K_9</text><text font-size="26" x="1246.1999999999998" y="152.5612988734261">B.1.1.7_N501Y_5</text><text font-size="26" x="1246.1999999999998" y="296.3121272365805">B.1.517_N501T_3</text><text font-size="26" x="1246.1999999999998" y="332.4685222001325">B.1.429_S13I_3</text><text font-size="26" x="1246.1999999999998" y="380.87143803843605">B.1.165_N501Y_14</text><text font-size="26" x="1246.1999999999998" y="424.90059642147116">B.1_T205I_23</text><text font-size="26" x="1246.1999999999998" y="491.6732935719019">B.1_L452R_15</text><text font-size="26" x="1246.1999999999998" y="575.9410205434062">B.1.526_D253G_37</text><text font-size="26" x="1246.1999999999998" y="610.6060596059062">B.1.526_S477N_11</text><text font-size="26" x="1246.1999999999998" y="687.4718356527502">B.1.526_S477N_12</text><text font-size="26" x="1246.1999999999998" y="722.1368747152502">B.1.526_E484K_45</text><text font-size="26" x="0" y="940.0">0</text><text font-size="26" x="0" y="852.0">10</text><text font-size="26" x="0" y="764.0">20</text><text font-size="26" x="0" y="676.0">30</text><text font-size="26" x="0" y="588.0">40</text><text font-size="26" x="0" y="500.0">50</text><text font-size="26" x="0" y="412.0">60</text><text font-size="26" x="0" y="324.0">70</text><text font-size="26" x="0" y="236.0">80</text><text font-size="26" x="0" y="148.0">90</text><text font-size="26" x="157.6" y="970">2020-10-04</text><line stroke="black" stroke-width="5" x1="157.6" x2="157.6" y1="955" y2="925" /><text font-size="26" x="352.79999999999995" y="970">2020-11-01</text><line stroke="black" stroke-width="5" x1="352.79999999999995" x2="352.79999999999995" y1="955" y2="925" /><text font-size="26" x="548.0" y="970">2020-11-29</text><line stroke="black" stroke-width="5" x1="548.0" x2="548.0" y1="955" y2="925" /><text font-size="26" x="743.1999999999999" y="970">2020-12-27</text><line stroke="black" stroke-width="5" x1="743.1999999999999" x2="743.1999999999999" y1="955" y2="925" /><text font-size="26" x="938.4" y="970">2021-01-24</text><line stroke="black" stroke-width="5" x1="938.4" x2="938.4" y1="955" y2="925" /><text font-size="26" x="1133.6" y="970">2021-02-21</text><line stroke="black" stroke-width="5" x1="1133.6" x2="1133.6" y1="955" y2="925" /><text font-size="32" x="75" y="30.0">relative_abundance</text></svg>