<?xml version="1.0" encoding="utf-8" ?>
<svg baseProfile="full" height="1000px" version="1.1" width="1500px" xmlns="http://www.w3.org/2000/svg" xmlns:ev="http://www.w3.org/2001/xml-events" xmlns:xlink="http://www.w3.org/1999/xlink"><defs /><polyline fill="white" points="0,0 0,1000 1500,1000 1500,0" stroke="black" /><polyline fill="white" points="60,60 60,940 1231.1999999999998,940 1231.1999999999998,60 60,60" stroke="black" stroke-width="5" /><polyline fill="#89fce0" points="1231.1999999999998,60.0 1182.3999999999999,338.1709741550696 1133.6,213.08151093439366 1084.8,142.22664015904573 1036.0,307.55467196819086 987.1999999999999,634.7117296222664 938.4,717.8131212723657 889.5999999999999,804.4135188866799 840.8,801.7892644135189 792.0,825.4075546719681 743.1999999999999,801.7892644135189 694.4,802.6640159045726 645.5999999999999,852.5248508946323 596.8,826.2823061630219 548.0,849.0258449304175 499.2,891.013916500994 450.4,879.6421471172963 401.59999999999997,868.2703777335985 352.79999999999995,889.2644135188867 304.0,901.5109343936382 255.2,930.3777335984096 206.39999999999998,924.2544731610338 157.6,920.7554671968192 108.8,905.0099403578529 60.0,933.8767395626243 60.0,940.0 108.8,940.0 157.6,940.0000000000001 206.39999999999998,940.0 255.2,940.0 304.0,940.0 352.79999999999995,940.0 401.59999999999997,940.0000000000001 450.4,940.0000000000001 499.2,940.0 548.0,940.0 596.8,940.0 645.5999999999999,940.0000000000001 694.4,940.0 743.1999999999999,940.0 792.0,939.9999999999999 840.8,940.0 889.5999999999999,940.0 938.4,939.9999999999999 987.1999999999999,940.0 1036.0,940.0 1084.8,940.0 1133.6,940.0000000000001 1182.3999999999999,940.0 1231.1999999999998,940.0" stroke="black" stroke-width="0" /><polyline fill="#614411" points="1231.1999999999998,94.40689198144466 1182.3999999999999,347.4044621161917 1133.6,231.74287607687214 1084.8,177.0223105809587 1036.0,333.60282747956705 987.1999999999999,648.8049480892423 938.4,730.2540313673513 889.5999999999999,814.4245637287386 840.8,811.3143362049923 792.0,835.5157941241439 743.1999999999999,814.6189529489728 694.4,814.5217583388558 645.5999999999999,860.9807819748179 596.8,836.8765186657831 548.0,857.8705544510714 499.2,895.9708416169649 450.4,885.8626021647891 401.59999999999997,875.7543627126133 352.79999999999995,894.80450629556 304.0,905.6903026286724 255.2,931.3496796995803 206.39999999999998,925.8095869229071 157.6,922.6993593991607 108.8,908.8977247625359 60.0,934.5571018334438 60.0,934.5571018334438 108.8,908.8977247625359 157.6,922.6993593991607 206.39999999999998,925.8095869229071 255.2,931.3496796995803 304.0,905.6903026286724 352.79999999999995,894.80450629556 401.59999999999997,875.7543627126133 450.4,885.8626021647891 499.2,895.9708416169649 548.0,857.8705544510714 596.8,836.8765186657831 645.5999999999999,860.9807819748179 694.4,816.2712613209632 743.1999999999999,817.2432074221339 792.0,836.3905456151975 840.8,813.9385906781533 889.5999999999999,816.174066710846 938.4,731.128782858405 987.1999999999999,651.4292025624034 1036.0,342.35034239010383 1084.8,181.3960680362271 1133.6,248.36315440689202 1182.3999999999999,354.40247404462116 1231.1999999999998,103.15440689198144" stroke="black" stroke-width="0" /><polyline fill="#dbc6bb" points="1231.1999999999998,137.5612988734261 1182.3999999999999,363.6359620057433 1133.6,267.0245195493705 1084.8,216.19173845814007 1036.0,368.39849790148 987.1999999999999,665.5224210293793 938.4,743.5696929533907 889.5999999999999,826.1851115529047 840.8,823.4636624696267 792.0,846.4987850673734 743.1999999999999,830.0728959575878 694.4,828.1290037552463 645.5999999999999,869.4367130550035 596.8,847.4707311685444 548.0,866.7152639717252 499.2,900.9277667329358 450.4,892.0830572122819 401.59999999999997,883.2383476916282 352.79999999999995,900.3445990722333 304.0,909.8696708637066 255.2,932.321625800751 206.39999999999998,927.3647006847804 157.6,924.6432516015022 108.8,912.7855091672188 60.0,935.2374641042633 60.0,935.2374641042633 108.8,912.7855091672188 157.6,924.6432516015022 206.39999999999998,927.3647006847804 255.2,932.321625800751 304.0,909.8696708637066 352.79999999999995,900.3445990722333 401.59999999999997,883.2383476916282 450.4,892.0830572122819 499.2,900.9277667329358 548.0,866.7152639717252 596.8,847.4707311685444 645.5999999999999,869.4367130550035 694.4,828.1290037552463 743.1999999999999,830.0728959575878 792.0,849.9977910315881 840.8,832.2111773801635 889.5999999999999,827.9346145350121 938.4,751.4424563728738 987.1999999999999,691.7649657609896 1036.0,424.3825933289154 1084.8,281.7981002871659 1133.6,363.24718356527507 1182.3999999999999,458.1091230395405 1231.1999999999998,246.90523525513584" stroke="black" stroke-width="0" /><polyline fill="#25a4ac" points="1231.1999999999998,281.3121272365805 1182.3999999999999,467.34261100066266 1133.6,381.90854870775354 1084.8,316.59377070907885 1036.0,450.4307488402916 987.1999999999999,705.8581842279656 938.4,763.8833664678594 889.5999999999999,837.9456593770708 840.8,841.7362491716368 792.0,860.106030483764 743.1999999999999,842.9025844930417 694.4,839.9867461895295 645.5999999999999,877.892644135189 596.8,858.0649436713056 548.0,875.5599734923791 499.2,905.8846918489066 450.4,898.3035122597747 401.59999999999997,890.722332670643 352.79999999999995,905.8846918489066 304.0,914.0490390987408 255.2,933.2935719019217 206.39999999999998,928.9198144466536 157.6,926.5871438038438 108.8,916.6732935719018 60.0,935.9178263750828 60.0,935.9178263750828 108.8,916.6732935719018 157.6,928.3366467859512 206.39999999999998,930.669317428761 255.2,934.1683233929754 304.0,914.9237905897944 352.79999999999995,906.7594433399603 401.59999999999997,895.0960901259114 450.4,902.6772697150432 499.2,906.7594433399603 548.0,879.0589794565938 596.8,863.3134526176277 645.5999999999999,880.5168986083501 694.4,846.1100066269053 743.1999999999999,848.1510934393638 792.0,864.4797879390323 840.8,845.2352551358515 889.5999999999999,843.1941683233929 938.4,777.8793903247183 987.1999999999999,715.480450629556 1036.0,464.42677269715045 1084.8,325.34128561961563 1133.6,387.15705765407563 1182.3999999999999,471.71636845593105 1231.1999999999998,283.06163021868787" stroke="black" stroke-width="0" /><polyline fill="#7650dc" points="1231.1999999999998,317.4685222001325 1182.3999999999999,480.9498564170532 1133.6,405.81842279655405 1084.8,360.1369560415286 1036.0,490.4749282085266 987.1999999999999,729.573669096532 938.4,790.3203004197039 889.5999999999999,853.2052131654516 840.8,854.7603269273249 792.0,874.5880273912082 743.1999999999999,860.9807819748177 694.4,857.9677490611884 645.5999999999999,888.9728296885356 596.8,873.9076651203889 548.0,887.9036889772476 499.2,911.7163684559312 450.4,908.897724762536 401.59999999999997,902.5800751049262 352.79999999999995,912.2995361166336 304.0,919.1031588248287 255.2,935.1402694941462 206.39999999999998,932.2244311906342 157.6,930.2805389882926 108.8,920.5610779765848 60.0,936.5981886459023 60.0,936.5981886459023 108.8,920.5610779765848 157.6,930.2805389882926 206.39999999999998,932.2244311906342 255.2,935.1402694941462 304.0,919.1031588248287 352.79999999999995,912.2995361166336 401.59999999999997,902.5800751049262 450.4,908.897724762536 499.2,913.4658714380386 548.0,890.5279434504087 596.8,879.156174066711 645.5999999999999,891.5970841616967 694.4,867.5900154627789 743.1999999999999,861.8555334658713 792.0,877.2122818643693 840.8,863.5078418378616 889.5999999999999,857.5789706207199 938.4,795.568809366026 987.1999999999999,740.0706869891761 1036.0,507.09520653854645 1084.8,386.37950077313894 1133.6,424.1882041086813 1182.3999999999999,497.57013474707304 1231.1999999999998,331.46454605699137" stroke="black" stroke-width="0" /><polyline fill="#e4918d" points="1231.1999999999998,365.87143803843605 1182.3999999999999,506.80362270819523 1133.6,442.8495692511597 1084.8,421.1751711950519 1036.0,533.1433620499226 987.1999999999999,754.163905456152 938.4,808.0097194610116 889.5999999999999,867.5900154627788 840.8,873.032913629335 792.0,887.3205213165451 743.1999999999999,874.6852220013253 694.4,879.447757897062 645.5999999999999,900.0530152418822 596.8,889.7503865694721 548.0,899.3726529710625 499.2,918.4227965540093 450.4,915.1181798100288 401.59999999999997,910.0640600839411 352.79999999999995,917.8396288933069 304.0,923.2825270598629 255.2,936.1122155953169 206.39999999999998,933.7795449525074 157.6,932.2244311906342 108.8,924.4488623812678 60.0,937.2785509167218 60.0,937.2785509167218 108.8,924.4488623812678 157.6,932.2244311906342 206.39999999999998,933.7795449525074 255.2,936.1122155953169 304.0,923.2825270598629 352.79999999999995,917.8396288933069 401.59999999999997,910.0640600839411 450.4,915.1181798100288 499.2,918.4227965540093 548.0,899.3726529710625 596.8,889.7503865694721 645.5999999999999,900.0530152418822 694.4,881.1972608791694 743.1999999999999,875.559973492379 792.0,889.9447757897061 840.8,877.4066710846034 889.5999999999999,870.2142699359398 938.4,809.759222443119 987.1999999999999,762.0366688756351 1036.0,541.0161254694058 1084.8,430.7974375966424 1133.6,454.22133863485755 1182.3999999999999,512.926883145571 1231.1999999999998,375.49370444002653" stroke="black" stroke-width="0" /><polyline fill="#e8a109" points="1231.1999999999998,409.90059642147116 1182.3999999999999,522.1603711066931 1133.6,472.882703777336 1084.8,465.5931080185553 1036.0,567.064280980782 987.1999999999999,776.129887342611 938.4,822.2001325381046 889.5999999999999,880.2253147779985 840.8,886.9317428760768 792.0,900.0530152418819 743.1999999999999,888.389662027833 694.4,893.0550033134526 645.5999999999999,908.5089463220678 596.8,900.3445990722333 548.0,908.2173624917164 499.2,923.3797216699802 450.4,921.3386348575216 401.59999999999997,917.5480450629559 352.79999999999995,923.3797216699802 304.0,927.4618952948971 255.2,937.0841616964876 206.39999999999998,935.3346587143807 157.6,934.1683233929757 108.8,928.3366467859507 60.0,937.9589131875413 60.0,937.9589131875413 108.8,928.3366467859507 157.6,934.1683233929757 206.39999999999998,935.3346587143807 255.2,937.0841616964876 304.0,927.4618952948971 352.79999999999995,923.3797216699802 401.59999999999997,917.5480450629559 450.4,921.3386348575216 499.2,923.3797216699802 548.0,912.5911199469847 596.8,904.7183565275018 645.5999999999999,910.2584493041752 694.4,895.6792577866137 743.1999999999999,891.8886679920477 792.0,903.5520212060966 840.8,888.6812458581842 889.5999999999999,885.4738237243206 938.4,839.6951623591782 987.1999999999999,791.8754141815772 1036.0,601.1795891318754 1084.8,514.5791915175613 1133.6,520.1192842942346 1182.3999999999999,553.6514247846255 1231.1999999999998,442.26640159045724" stroke="black" stroke-width="0" /><polyline fill="#d23c82" points="1231.1999999999998,476.6732935719019 1182.3999999999999,562.8849127457477 1133.6,538.780649436713 1084.8,549.3748619394743 1036.0,627.2277446432516 987.1999999999999,805.9686326485531 938.4,852.1360724541638 889.5999999999999,895.4848685663793 840.8,898.2063176496575 792.0,913.6602606582725 743.1999999999999,904.7183565275017 694.4,907.5370002208969 645.5999999999999,918.7143803843608 596.8,915.3125690302629 548.0,921.4358294676387 499.2,928.3366467859511 450.4,927.5590899050144 401.59999999999997,925.0320300419708 352.79999999999995,928.9198144466535 304.0,931.6412635299313 255.2,938.0561077976583 206.39999999999998,936.8897724762539 157.6,936.1122155953173 108.8,932.2244311906337 60.0,938.6392754583608 60.0,938.6392754583608 108.8,932.2244311906337 157.6,936.1122155953173 206.39999999999998,936.8897724762539 255.2,938.0561077976583 304.0,931.6412635299313 352.79999999999995,928.9198144466535 401.59999999999997,925.0320300419708 450.4,927.5590899050144 499.2,928.3366467859511 548.0,921.4358294676387 596.8,915.3125690302629 645.5999999999999,920.4638833664682 694.4,908.4117517119505 743.1999999999999,907.3426110006627 792.0,914.5350121493261 840.8,903.4548265959796 889.5999999999999,902.4828804948087 938.4,869.6311022752374 987.1999999999999,830.4616743980561 1036.0,674.4643251601502 1084.8,589.6134305279435 1133.6,595.6394963552021 1182.3999999999999,624.9922686105588 1231.1999999999998,526.5341285619616" stroke="black" stroke-width="0" /><polyline fill="#ea0676" points="1231.1999999999998,560.9410205434062 1182.3999999999999,634.2257565716809 1133.6,614.3008614976806 1084.8,624.4091009498565 1036.0,700.5124806715264 987.1999999999999,844.554892865032 938.4,882.072012370223 889.5999999999999,912.4939253368675 840.8,912.979898387453 792.0,924.643251601502 743.1999999999999,920.1722995361166 694.4,920.2694941462337 645.5999999999999,928.9198144466536 596.8,925.9067815330242 548.0,930.2805389882925 499.2,933.293571901922 450.4,933.7795449525072 401.59999999999997,932.5160150209856 352.79999999999995,934.4599072233268 304.0,935.8206317649655 255.2,939.0280538988291 206.39999999999998,938.4448862381272 157.6,938.0561077976588 108.8,936.1122155953167 60.0,939.3196377291803 60.0,939.3196377291803 108.8,936.1122155953167 157.6,938.0561077976588 206.39999999999998,938.4448862381272 255.2,939.0280538988291 304.0,935.8206317649655 352.79999999999995,934.4599072233268 401.59999999999997,932.5160150209856 450.4,933.7795449525072 499.2,935.0430748840294 548.0,931.1552904793461 596.8,929.4057874972389 645.5999999999999,931.5440689198147 694.4,928.1422575657168 743.1999999999999,927.170311464546 792.0,929.8917605478241 840.8,930.4749282085265 889.5999999999999,929.9889551579411 938.4,927.5590899050143 987.1999999999999,925.9067815330241 1036.0,913.9518444886238 1084.8,905.204329578087 1133.6,921.3386348575216 1182.3999999999999,930.7665120388776 1231.1999999999998,905.5931080185553" stroke="black" stroke-width="0" /><polyline fill="#490ce4" points="1231.1999999999998,577.3426110006627 1182.3999999999999,640.3490170090566 1133.6,624.1418157720344 1084.8,634.9061188425006 1036.0,708.603931963773 987.1999999999999,849.1473381930638 938.4,883.6028274795669 889.5999999999999,913.1499889551577 840.8,913.1985862602164 792.0,925.0806273470289 743.1999999999999,920.6096752816435 694.4,920.7068698917606 645.5999999999999,929.3571901921805 596.8,926.344157278551 548.0,930.499226861056 499.2,933.7309476474488 450.4,933.7795449525072 401.59999999999997,932.5160150209856 352.79999999999995,934.4599072233268 304.0,935.8206317649655 255.2,939.0280538988291 206.39999999999998,938.4448862381272 157.6,938.0561077976588 108.8,936.1122155953167 60.0,939.3196377291803 60.0,939.3196377291803 108.8,936.1122155953167 157.6,938.0561077976588 206.39999999999998,938.4448862381272 255.2,939.0280538988291 304.0,935.8206317649655 352.79999999999995,934.4599072233268 401.59999999999997,932.5160150209856 450.4,933.7795449525072 499.2,933.7309476474488 548.0,930.499226861056 596.8,928.0936602606585 645.5999999999999,930.2319416832341 694.4,921.5816213828142 743.1999999999999,921.4844267726971 792.0,926.8301303291363 840.8,914.9480892423238 889.5999999999999,915.7742434283188 938.4,890.6008394079963 987.1999999999999,868.3918709962447 1036.0,764.5880273912084 1084.8,703.1367351446875 1133.6,710.7422133863486 1182.3999999999999,742.6949414623369 1231.1999999999998,656.0702451954937" stroke="black" stroke-width="0" /><polyline fill="#cb87dc" points="1231.1999999999998,672.4718356527502 1182.3999999999999,748.8182018997127 1133.6,720.5831676607024 1084.8,713.6337530373316 1036.0,772.6794786834549 987.1999999999999,872.9843163242765 938.4,892.1316545173403 889.5999999999999,916.430307046609 840.8,915.1667771150871 792.0,927.2675060746631 743.1999999999999,921.921802518224 694.4,922.0189971283411 645.5999999999999,930.669317428761 596.8,928.5310360061852 548.0,930.7179147338194 499.2,934.1683233929757 450.4,933.7795449525072 401.59999999999997,932.5160150209856 352.79999999999995,934.4599072233268 304.0,935.8206317649655 255.2,939.0280538988291 206.39999999999998,938.4448862381272 157.6,938.0561077976588 108.8,936.1122155953167 60.0,939.3196377291803 60.0,939.3196377291803 108.8,936.1122155953167 157.6,938.0561077976588 206.39999999999998,938.4448862381272 255.2,939.0280538988291 304.0,935.8206317649655 352.79999999999995,934.4599072233268 401.59999999999997,932.5160150209856 450.4,933.7795449525072 499.2,934.1683233929757 548.0,930.7179147338194 596.8,928.5310360061852 645.5999999999999,930.669317428761 694.4,923.7685001104485 743.1999999999999,923.6713055003314 792.0,928.1422575657167 840.8,920.4152860614092 889.5999999999999,918.1798100287164 938.4,896.5054119726087 987.1999999999999,874.7338193063839 1036.0,779.6774906118843 1084.8,729.3792798762978 1133.6,734.5791915175613 1182.3999999999999,766.3132317207862 1231.1999999999998,682.9688535453944" stroke="black" stroke-width="0" /><polyline fill="#81d90f" points="1231.1999999999998,699.3704440026507 1182.3999999999999,772.436492158162 1133.6,744.4201457919152 1084.8,739.876297768942 1036.0,787.7689419041309 987.1999999999999,879.3262646344157 938.4,898.0362270819526 889.5999999999999,918.8358736470066 840.8,920.6339739341727 792.0,928.5796333112436 743.1999999999999,924.1086812458582 694.4,924.2058758559753 645.5999999999999,931.1066931742879 596.8,928.9684117517121 548.0,930.9366026065828 499.2,934.6056991385026 450.4,933.7795449525072 401.59999999999997,932.5160150209856 352.79999999999995,934.4599072233268 304.0,935.8206317649655 255.2,939.0280538988291 206.39999999999998,938.4448862381272 157.6,938.0561077976588 108.8,936.1122155953167 60.0,939.3196377291803 60.0,939.3196377291803 108.8,936.1122155953167 157.6,938.0561077976588 206.39999999999998,938.4448862381272 255.2,939.0280538988291 304.0,935.8206317649655 352.79999999999995,934.4599072233268 401.59999999999997,932.5160150209856 450.4,933.7795449525072 499.2,934.6056991385026 548.0,930.9366026065828 596.8,928.9684117517121 645.5999999999999,931.1066931742879 694.4,927.7048818201899 743.1999999999999,926.7329357190192 792.0,929.4543848022972 840.8,930.2562403357631 889.5999999999999,929.3328915396507 938.4,926.0282747956703 987.1999999999999,921.3143362049922 1036.0,905.8603931963773 1084.8,894.707311685443 1133.6,911.4976805831677 1182.3999999999999,924.6432516015019 1231.1999999999998,889.1915175612988" stroke="black" stroke-width="0" /><text font-size="26" x="1246.1999999999998" y="75.0">anc</text><text font-size="26" x="1246.1999999999998" y="109.6650390625">R.1_E484K_9</text><text font-size="26" x="1246.1999999999998" y="152.5612988734261">B.1.1.7_N501Y_5</text><text font-size="26" x="1246.1999999999998" y="296.3121272365805">B.1.517_N501T_3</text><text font-size="26" x="1246.1999999999998" y="332.4685222001325">B.1.429_S13I_3</text><text font-size="26" x="1246.1999999999998" y="380.87143803843605">B.1.165_N501Y_14</text><text font-size="26" x="1246.1999999999998" y="424.90059642147116">B.1_T205I_23</text><text font-size="26" x="1246.1999999999998" y="491.6732935719019">B.1_L452R_15</text><text font-size="26" x="1246.1999999999998" y="575.9410205434062">B.1.526_D253G_37</text><text font-size="26" x="1246.1999999999998" y="610.6060596059062">B.1.526_S477N_11</text><text font-size="26" x="1246.1999999999998" y="687.4718356527502">B.1.526_S477N_12</text><text font-size="26" x="1246.1999999999998" y="722.1368747152502">B.1.526_E484K_45</text><text font-size="22" x="0" y="940.0">0</text><text font-size="22" x="0" y="852.5248508946322">100</text><text font-size="22" x="0" y="765.0497017892644">200</text><text font-size="22" x="0" y="677.5745526838966">300</text><text font-size="22" x="0" y="590.0994035785288">400</text><text font-size="22" x="0" y="502.62425447316105">500</text><text font-size="22" x="0" y="415.14910536779325">600</text><text font-size="22" x="0" y="327.67395626242546">700</text><text font-size="22" x="0" y="240.19880715705764">800</text><text font-size="22" x="0" y="152.72365805168988">900</text><text font-size="22" x="0" y="65.24850894632206">1000</text><text font-size="26" x="157.6" y="970">2020-10-04</text><line stroke="black" stroke-width="5" x1="157.6" x2="157.6" y1="955" y2="925" /><text font-size="26" x="352.79999999999995" y="970">2020-11-01</text><line stroke="black" stroke-width="5" x1="352.79999999999995" x2="352.79999999999995" y1="955" y2="925" /><text font-size="26" x="548.0" y="970">2020-11-29</text><line stroke="black" stroke-width="5" x1="548.0" x2="548.0" y1="955" y2="925" /><text font-size="26" x="743.1999999999999" y="970">2020-12-27</text><line stroke="black" stroke-width="5" x1="743.1999999999999" x2="743.1999999999999" y1="955" y2="925" /><text font-size="26" x="938.4" y="970">2021-01-24</text><line stroke="black" stroke-width="5" x1="938.4" x2="938.4" y1="955" y2="925" /><text font-size="26" x="1133.6" y="970">2021-02-21</text><line stroke="black" stroke-width="5" x1="1133.6" x2="1133.6" y1="955" y2="925" /><text font-size="32" x="75" y="30.0">sequence_scaled_lineages</text></svg>